<?xml version="1.0" standalone="no"?><!DOCTYPE svg PUBLIC "-//W3C//DTD SVG 1.1//EN" "http://www.w3.org/Graphics/SVG/1.1/DTD/svg11.dtd"><svg t="1666107242311" class="icon" viewBox="0 0 1024 1024" version="1.1" xmlns="http://www.w3.org/2000/svg" p-id="1011" xmlns:xlink="http://www.w3.org/1999/xlink" width="200" height="200"><path d="M837.818182 209.454545a93.090909 93.090909 0 0 1 93.090909 93.09091v418.90909a93.090909 93.090909 0 0 1-93.090909 93.09091H186.181818a93.090909 93.090909 0 0 1-93.090909-93.09091V302.545455a93.090909 93.090909 0 0 1 93.090909-93.09091h651.636364z m0 46.545455H186.181818a46.545455 46.545455 0 0 0-46.545454 46.545455v418.90909a46.545455 46.545455 0 0 0 46.545454 46.545455h28.253091l87.389091-143.918545a46.545455 46.545455 0 0 1 79.592727 0l43.473455 71.633454 152.948363-203.869091a46.545455 46.545455 0 0 1 74.472728 0l186.181818 248.226909c6.050909 8.075636 9.076364 17.454545 9.309091 26.833455A46.522182 46.522182 0 0 0 884.363636 721.454545V302.545455a46.545455 46.545455 0 0 0-46.545454-46.545455zM321.722182 684.404364L270.941091 768h141.335273l-50.781091-83.595636a23.272727 23.272727 0 0 0-39.796364 0z m274.734545-147.572364L423.051636 768H807.098182l-173.405091-231.168a23.272727 23.272727 0 0 0-37.236364 0zM290.909091 302.545455a81.454545 81.454545 0 1 1 0 162.90909 81.454545 81.454545 0 0 1 0-162.90909z m0 46.545454a34.909091 34.909091 0 1 0 0 69.818182 34.909091 34.909091 0 0 0 0-69.818182z" fill="#2c2c2c" p-id="1012"></path></svg>